<svg xmlns="http://www.w3.org/2000/svg" viewBox="0 0 48 48" fill="none" stroke="currentColor" stroke-width="2.4">
  <rect x="33.0" y="21.0" width="6" height="6" fill="currentColor" stroke="none" transform="rotate(0 36.0 24.0)"></rect>
  <rect x="29.5" y="29.5" width="6" height="6" fill="currentColor" stroke="none" transform="rotate(45 32.5 32.5)"></rect>
  <rect x="21.0" y="33.0" width="6" height="6" fill="currentColor" stroke="none" transform="rotate(90 24.0 36.0)"></rect>
  <rect x="12.5" y="29.5" width="6" height="6" fill="currentColor" stroke="none" transform="rotate(135 15.5 32.5)"></rect>
  <rect x="9.0" y="21.0" width="6" height="6" fill="currentColor" stroke="none" transform="rotate(180 12.0 24.0)"></rect>
  <rect x="12.5" y="12.5" width="6" height="6" fill="currentColor" stroke="none" transform="rotate(225 15.5 15.5)"></rect>
  <rect x="21.0" y="9.0" width="6" height="6" fill="currentColor" stroke="none" transform="rotate(270 24.0 12.0)"></rect>
  <rect x="29.5" y="12.5" width="6" height="6" fill="currentColor" stroke="none" transform="rotate(315 32.5 15.5)"></rect>
  <circle cx="24" cy="24" r="13"></circle>
  <circle cx="24" cy="24" r="5"></circle>
</svg>